<?xml version="1.0" encoding="utf-8"?>
<!-- Generator: Adobe Illustrator 24.3.0, SVG Export Plug-In . SVG Version: 6.00 Build 0)  -->
<svg version="1.1" xmlns="http://www.w3.org/2000/svg" xmlns:xlink="http://www.w3.org/1999/xlink" x="0px" y="0px"
	 viewBox="0 0 100 80" style="enable-background:new 0 0 100 80;" xml:space="preserve">
<style type="text/css">
	.st0{fill:#FF3350;}
</style>
<g id="note">
	<path id="music" class="st0" d="M55.4,1.2L19.2,11.9c-1.5,0.5-2.5,1.9-2.5,3.4v29.6c-1.2-0.3-2.4-0.4-3.6-0.4
		c-6,0-10.9,3.3-10.9,7.2s4.9,7.2,10.9,7.2s10.9-3.2,10.9-7.2V25.3l28.9-8.5v20.9c-1.2-0.3-2.4-0.4-3.6-0.4c-6,0-10.9,3.2-10.9,7.2
		s4.9,7.2,10.9,7.2s10.9-3.2,10.9-7.2V4.6c0-2-1.6-3.6-3.6-3.6C56.1,1,55.8,1.1,55.4,1.2L55.4,1.2z"/>
</g>
<g id="star_1_">
	<path id="star" class="st0" d="M64.9,24.1l-7.3,14.7l-16.2,2.4c-1.9,0.3-3.3,2.1-3,4c0.1,0.8,0.5,1.5,1,2l11.7,11.4l-2.8,16.2
		c-0.3,1.9,1,3.8,2.9,4.1c0.8,0.1,1.6,0,2.3-0.4L68,70.9l14.5,7.6c1.7,0.9,3.9,0.2,4.8-1.5c0.4-0.7,0.5-1.5,0.4-2.2l-2.8-16.2
		l11.8-11.4c1.4-1.4,1.4-3.6,0.1-5c-0.5-0.6-1.3-0.9-2-1l-16.2-2.4l-7.3-14.7c-0.9-1.8-3-2.5-4.8-1.6C65.8,22.8,65.2,23.4,64.9,24.1
		L64.9,24.1z"/>
</g>
</svg>
